<svg xmlns="http://www.w3.org/2000/svg" viewBox="0 0 734.45 747.51"><defs><style>.cls-1{fill:#075a8c;}.cls-2{fill:#075a8d;}.cls-3{fill:#6195b7;}.cls-4{fill:#6095b7;}.cls-5{fill:#085a8d;}.cls-6{fill:#6094b6;}.cls-7{fill:#6094b7;}.cls-8{fill:#085b8d;}.cls-9{fill:#095b8e;}.cls-10{fill:#6296b7;}.cls-11{fill:#0c5d8f;}.cls-12{fill:#126192;}.cls-13{fill:#6799ba;}.cls-14{fill:#5f94b6;}.cls-15{fill:#0e5e90;}.cls-16{fill:#1d6898;}.cls-17{font-size:80px;fill:#4c4f4f;font-family:BivoacRegulerDemo, Bivoac;}.cls-18{letter-spacing:-0.08em;}</style></defs><g id="Layer_2" data-name="Layer 2"><g id="Layer_1-2" data-name="Layer 1"><path class="cls-1" d="M518.34,412.49c-3.05,12-4.7,24.36-8.75,36.13-.43,1.24-1,2.41-1.59,3.62-5.29,5-12.35,7.7-17,13.51-2,2.44-4.44,4.43-5.67,7.44-1,2.35-2.73,3.22-5.21,2.27-5.56-1.67-11.08-3.24-16.2-6.29-6.17-3.68-13.56-2.68-20.37-4-1.48-.28-2.91.69-4,1.78-4.95,4.94-10.26,9.59-14.64,15-3.35,4.13-7.4,5.85-12.24,6.88-3.28.7-4.23-.34-3.65-3.52,2.28-12.48,2.27-25.18,3.68-37.75,1.33-11.91,1.87-23.9,2.89-35.84.25-3-.57-4.06-3.75-4.16-15.44-.5-16.26-.68-17.71,14.5-1.53,15.91-4.78,31.57-5.84,47.54-.38,5.76-.37,12.68-3.51,16.82-3.43,4.52-10.79,1.13-16.38,1.91-10.84,1.51-21.52-2.12-32.36-1.13-3.29.3-2.81-2-2.6-4,.79-7.45,2.08-14.85,1.41-22.54a116.92,116.92,0,0,1-11.53,23.16c-1,1.53-2,3.07-3,4.59-.85,1.28-1.79,2-3.1.44-4.66-5.45-11.43-8-17-12.18a57.53,57.53,0,0,1-5.81-4.72c-6.08-6-11.28-7.06-19.29-3.41a111.7,111.7,0,0,0-10.23,5.21c-4.84,2.83-10.32,3.67-15.53,5.35a3.46,3.46,0,0,1-4.58-1.74c-4.95-8.29-9.85-16.59-12.72-25.9-.05-2.62,2.13-2.22,3.57-2.39a46.4,46.4,0,0,0,17-5.44c5.25-2.86,10.9-2.93,16.55-2.56,10.83.7,20.92-1.45,30-7.33a93,93,0,0,0,18-14.93c7.55-8.19,15.11-16.33,19.66-26.83s6.57-21.58,7.86-32.83A103.44,103.44,0,0,0,346,344.23c0-1.48,0-3.19,1.56-4,1.84-.94,3.15.46,4.39,1.52,14.81,12.7,32.11,19.67,51.25,22.56,6.56,1,13.24,1.64,19.27,4.85,1.63.87,3.51,1.49,4.39,3.15,3.18,6,7.49,11.45,9.72,18,1.66,4.84,4.86,8.68,7.83,12.68a9.79,9.79,0,0,0,3.06,2.54c1.36.76,2.92,2.58,4.36.91s-.2-3.14-1.47-4.19c-2.22-1.84-3.71-4.24-5.53-6.4-3.88-4.59-4.9-10.53-7.65-15.64-1.49-2.77.83-3.81,3-4.61,6.77-2.51,13.43-1.45,20.09.54,1.9.56,4.75,2.73,5.67.14,1.1-3.07-2.49-3.81-4.72-4.55a36.44,36.44,0,0,0-20.68-1.09c-4.52,1.16-8,.55-11.8-2.79a29.69,29.69,0,0,0-17.9-6.9c-12.37-.71-23.73-4.92-35-9.44-10.18-4.08-18.29-11.42-26.84-18-2.53-1.95-2.2-4.63-.84-7.24q2.53-24.44,5.08-48.89c1.35-1,2.55-.31,3.66.42,7.42,4.91,15.73,7.92,23.92,11.2a74.71,74.71,0,0,1,16.53,9.17c3.7,2.72,5.75,5.8,5.26,10.48a41.28,41.28,0,0,0,.1,6.48c-.2,9.37.24,9.8,9.87,9.77,5.65,0,6.07-.48,6.21-6.34.25-11-.59-21.92.45-32.85,1.28-2.92,2.95-1.12,4.38-.24,3.27,2,6,4.74,9,7.12,4.7,3.73,9.82,6.84,14.59,10.43,5.38,4,10.1,8.56,13,14.87,2.67,5.88,8,9.74,12.13,14.47,0,18.61.83,37.22-1,55.82a263.11,263.11,0,0,0-.87,26.37,650.72,650.72,0,0,0,9-72c3.88-.1,4.76,3.15,6,5.69,3.94,7.86,7.49,15.91,11.45,23.77a97.77,97.77,0,0,0,9.53,15.73A88.69,88.69,0,0,1,517,404.44C518.25,407.14,519.15,409.59,518.34,412.49Z"/><path class="cls-1" d="M545.08,157.47c4.21,14.62,8.3,29.27,11.76,44.08,2.87,12.26,5.85,24.5,9.17,36.78v-5.78c-.31-2.08-1.32-5,.49-5.93,2.19-1.11,3.42,1.89,4.84,3.38a14,14,0,0,0,2.41,2.51c7.47,4.58,8.45,12.27,9.57,19.86,1.07,7.27-2.39,13.09-7,18-5.48,5.75-10.52,11.94-16.66,17.12-10.67,9-15.8,21.06-18.11,34.56-.6,3.5-.4,7.24-2.43,10.58-2.35-.87-.66-3.19-1.94-4.21l-3.18-29-1.42-.1c.59,26-4.33,51.44-7.47,77.05-2.43,2-5.51,2.22-8.36,2.9-6.69,1.58-11.25-.64-14.4-6.77-3.49-6.78-6.6-13.76-9.79-20.68a77.05,77.05,0,0,0-9.19-15.31c-1.87-2.4-3.48-4.91-2.26-8.18a1227.2,1227.2,0,0,0,1.52-123.86c-.46-11-.82-22-1.23-32.95,1.18-2.8,3.74-2.41,6-2.45,6.49-.13,13-.55,19.46.06,12.05,1.13,22.14-3.15,31.62-9.9C540.37,157.81,542.23,155.51,545.08,157.47Z"/><path class="cls-1" d="M167.1,229.17q2-10,3.89-20c4.76-5.06,11.5-5.8,17.59-7.12a216.81,216.81,0,0,1,27.36-4.53c2.85-.24,5.7-.38,4.45,4-.51,9.65-2.95,19-4.26,28.54C211.9,260.9,211,292,209.94,323c-.06,1.81.27,3.68-.74,5.36-7.76,12.59-15.32,25.29-22.48,38.24-2.38,4.3-6.54,7.49-9.71,11.35-2,2.49-5.19,2-7.92,1-3.18-1.14-6.2-2.93-8-5.79-4.73-7.64-9-15.42-9.25-24.9-.8-25.31-9-47.64-28.21-64.95-5.31-4.79-10.52-9.42-15-15.16-5.35-6.94-6-14.28-5.65-22.52.38-8,5.17-12.64,10.78-17,3.89-3,7.32-6.27,9.32-10.85,1.41-3.22,3.82-3.94,6.94-2.43a49.25,49.25,0,0,0,7.07,2.45c6.51,2,12.77,1.86,18.77-1.72a53.36,53.36,0,0,1,5.84-2.84c2.35-1,3.78-.3,4.45,2.12l-.12,1.95c-.79,4.92-.35,9.85,0,14.15-.36,1.28,0,1,0,.93A5.09,5.09,0,0,1,167.1,229.17Z"/><path class="cls-1" d="M229.44,443.23a132.13,132.13,0,0,1-6.19-22.55,454.94,454.94,0,0,1-7-67.49c-.25-7.66-.37-15.32-.67-23-.12-2.93.85-4.15,4-4.19,16.45-.21,32.9-.65,49.35,0,2.66.12,2,1.75,2,3,0,7.83,0,15.66-.1,23.49-.28,17.5-.05,35,1.31,52.45.37,4.79.85,9.66,3.29,14,1.34,2.36,3.1,4.46,6.13,4.44s4.7-2.35,5.81-4.78a48.29,48.29,0,0,0,3.93-19.45c.21-12.49-.1-25,.18-37.48.05-2.59-2.36-5-.47-7.58,6.92-6.18,13.08-13.39,21.48-17.63,7.95-4,16.58-2.86,25-1.82,3.21.39,4.21,3,4.12,5.93-.31,10.32-.87,20.66-3.26,30.72-1.37,5.79-2.15,11.72-4.79,17.26-9.45,19.8-24.28,34.3-43.33,44.69a30,30,0,0,1-18,3c-8.89-1.11-16.83,1.1-24.69,4.5a48.43,48.43,0,0,1-10.91,3.52C234.1,444.76,231.57,445.15,229.44,443.23Z"/><path class="cls-1" d="M665.35,154.27a167.82,167.82,0,0,1,10.76,29.19c1,8.48-.61,16.74-2.35,24.94-2.42,11.38,4.39,25.1,15,29.56,1.61.67,3.27,1.12,4.63-.27,2.93-3,6.25-1.93,9.58-1.17,1.56,1.42,3.46.67,5.22.83,4.22,1.47,4.8,3.05,2.3,6.71-3.12,4.55-7.16,7.23-13,6.78-2.29-.17-6.27-1-6.36,2-.1,3.18,3.89,2.1,6.14,2.23,10.57.58,10.91.89,11.35,11.53.08,2.17-.83,5.92,1.93,5.9,3.27,0,2.23-3.88,2.21-6.14-.06-7,0-14,3.11-20.56,2.24-4.79,4.38-6.09,9.1-5.24,3.26.9,4.77,2.71,5.52,6.38,2.26,11.05,2.85,21.59-2.86,32-3.71,6.76,1.29,11.16,5.67,15.38,1.07,2.6-.46,4.37-1.87,6.28-3.63,4.94-8.72,8.75-11.16,14.61-.79,1.9-2.48,2-4.24,1.44-2.22-.73-4.37-1.77-6.68-2-4.92-.55-7.76-3.05-10.08-7.57-3.86-7.52-10.5-12.44-18.55-15-8.87-2.86-15.78-9.15-23.95-13.23-1.42-.71-3-2.12-2.4-4s2.41-1.65,3.85-1.45c7.57,1,15.25,1.48,22.67,3.49a17.21,17.21,0,0,1,9.27,5.57c.81,1,1.84,2.33,3.31,1.28s.94-2.74.1-4c-3-4.44-7.62-6.33-12.51-7.59-7-1.78-14.12-2.29-21.2-3.33-1.64-.24-3.29-.69-4.92-.77-13.09-.66-19-10.83-26.19-19.44-1.06-1.27-.78-2.84-1.36-4.19a601,601,0,0,0-17.55-97.25c-.58-2.2-1.1-4.43-1.65-6.64.67-2.8,2.89-1.81,4.25-1.32,10.75,3.94,22.13,3.5,33.22,5C653.28,145.23,660.33,147.86,665.35,154.27Z"/><path class="cls-1" d="M108.24,136.37a392.68,392.68,0,0,0-36,96.65c-.26,1.13-.65,2.23-1,3.34-.15,4-2.12,6.71-5.75,8.49-11.07,5.44-17.6,15.45-24.54,25A42.29,42.29,0,0,1,25.6,283c-4.79,2.4-8.93,5.87-13.87,7.91-1.39.58-3.56,2.87-4.58-.66.82-2.83,1.15-6-.87-8.12-5-5.3-4.43-11.84-3.67-17.88a256,256,0,0,1,15.93-62.08A13.47,13.47,0,0,1,24.36,195c4.16-2.39,6.18-6.9,9.6-10.06s6-6.59,9.93-9c3-1.88,3.42-5,3.14-8.38-.64-7.82-.47-15.61,2.29-23.11,2.59-2.17,5.74-1.64,8.64-1.44,9.24.64,17.65-.9,25.57-6.3,6.44-4.39,14.26-4.13,21.8-3.52C107,133.3,109.3,133.47,108.24,136.37Z"/><path class="cls-1" d="M270,303.58c-10.56-15.1-22.08-29.55-31.11-45.69-8.42-15.06-11.29-31.36-10.71-48.41-1-12-1.56-12.13,10.85-11.31,8.94.6,17.61,3.34,26.53,4.29,10.88,1.15,21.52,3.63,32.24,5.66,3.58.68,7.27,1,10.29,3.37l1.09,1a108.43,108.43,0,0,1,6,9.9c3.61,6.22,7.25,12.42,10.81,18.67a120.38,120.38,0,0,1,9.36,21.2c-.39,4.42-4,6.27-7,8.41a135.59,135.59,0,0,1-16.13,10,164.63,164.63,0,0,0-33.41,23.46C273.85,308.53,273.81,308.48,270,303.58Z"/><path class="cls-1" d="M632.29,453.5c-7.18,2.87-14.78,2.44-22.11,1.73-9.33-.91-18-1.06-24.49,7.49-1.08-2.38.07-3.59.8-4.69,8.24-12.4,13.36-26.35,18.76-40a293,293,0,0,0,17.18-62.78,26.91,26.91,0,0,1,.8-2.85c2.47-2.93,6.15-3.87,9.33-5.62,12.8-7.06,23.75-15.87,29.54-29.92a14.07,14.07,0,0,0,.72-10.12,85,85,0,0,0-6.91-16.54c-.8-1.42-2-3.07-.71-4.58,1.45-1.67,3-.12,4.5.47a37.54,37.54,0,0,1,7.73,4.55,44.79,44.79,0,0,0,12,6c10.36,3.51,16.93,10.84,19.16,21.73.61,3-.41,4.19-3.46,3.1-3.1-.59-3.5,1.42-3.73,3.75a224.8,224.8,0,0,1-4.09,27.65c-.59,2.57-2.45,4.74-2.12,7.52-6,8.39-12.72,15.73-24,16.94-3.54.38-7.3,1.07-10.15,3.72-1,.9-2.16,1.94-1.36,3.39s2.35.91,3.5.3a32.39,32.39,0,0,1,10-2.94c4.81-.81,9.33-2.14,13.27-5.29,1.21-1,3.21-3.48,4.8,0-3.09,10.34-6,20.75-11.09,30.35-2.07,3.93-1,5.25,3.08,5.23.5,0,1,.18,1.48.21,3.86.22,3.77,1.76,1.39,4.09-2.26,2-5,1.49-7.63,1.4-7.2-.28-13.77,1.13-19.71,5.55-3.84,2.85-5.18,2-6-3s-.82-10.29-2.52-15.22a16.46,16.46,0,0,0-1.56-3.66c-1-1.5-2-3.66-4.15-2.47s-.48,3,.16,4.39c4.59,10,3.56,20.62,2.07,30.87C635.81,440.62,635.11,447.38,632.29,453.5Z"/><path class="cls-1" d="M452.3,68.35c1.3,9.75,2.95,19.46,3,29.33,0,2-.15,3.94,1,5.7-.51,2.75-2.34,1.55-3.61,1-9.92-4.2-20.27-7.64-28.26-15.39a6.56,6.56,0,0,0-1.63-1.14c-1.23-.59-2.57-1.21-3.55.24-.76,1.13-.15,2.26.65,3.17A26.62,26.62,0,0,0,424,94.83a73.94,73.94,0,0,0,19.93,11.11c4.76,1.71,9.77,3.26,13.13,7.53,1.84,13.89,3.47,27.8,4.28,41.79,1.21,4.16-1.36,4.22-4.1,3.52-5.79-1.49-11.7-2.64-17.3-4.7-6.29-2.31-12.52-4.44-19.3-4.42a5.2,5.2,0,0,1-2.83-.89c-2.77-2.72-1.15-6.19-1.6-9.31-.18-3.25.41-6.56-.32-9.18.66,4.56.31,9.77.2,15-.06,2.93-2.35,3.61-4.61,3.21-11.2-2-21.83.91-32.51,3.53a25.23,25.23,0,0,1-6.42.82c-3.73-.05-5.8-1.4-4.48-5.52q4.65-39.91,9.29-79.82c.87-7.16,1.15-7.59,8.72-7.4,7.74.2,15.26-.4,22.53-3.35,5.49-2.23,11-1.87,16.55.36,6.94,2.79,13.94,5.49,21,8A16.67,16.67,0,0,1,452.3,68.35Z"/><path class="cls-1" d="M618.35,309.53c-1.09,27.22-6,53.92-12.72,80.17a264.39,264.39,0,0,1-12,35.32c-5.46,13.15-11.63,26-17.37,39-2,4.57-4.85,7.25-9.69,8.15-13.25,2.45-26.5,4.91-39.71,7.57-3.83.77-3.14-1.55-2.45-3.3,3.9-9.83,4.81-20.36,7.38-30.49a76.4,76.4,0,0,0,2.29-17.76,40.33,40.33,0,0,1,1.25-8.77c.68-1.89,2.4-2.09,4-2.48,6-1.45,10.7-4.76,14.84-9.47,9-10.29,14.05-22.28,17.91-35.25,4-13.51,8.42-27.08,14.93-39.59,5.88-11.27,14.4-20.82,26-26.94C617.51,303.26,618.71,304.31,618.35,309.53Z"/><path class="cls-1" d="M69.31,359.35c4.15,13.94,6.86,28.25,11.48,42.08,2.83,8.46,6.79,16.41,9.59,24.83-1.68,1.06-1.69,1.07-4,0-1.46-.69-3.13-2.1-4.43-.34-1.51,2.06.46,3.44,1.85,4.42,6.33,4.47,12.12,9.28,13.77,17.43.39,1.92,1.38,3.81-.27,5.61a16.28,16.28,0,0,1-14.07-6,10,10,0,0,0-5.23-3.6c-10.9-2.73-17-10.12-20-20.5-1.36-4.66-5.72-6.68-8.73-9.88-.93-3,1-5,2.42-7.17.88-1.39,2.14-2.5,3-3.91.73-1.18,1.27-2.48,0-3.58-1.44-1.25-2.82-.52-3.92.61-2.2,2.25-3.61,5.09-5.43,7.63-1,1.31-1.49,3.54-4,2.31C34.89,403.34,27.63,398.19,25,389c-1.41-4.88-2.15-10.6-8.2-12.87-1.72-.64-2.18-2.86-2.77-4.57C7.13,351.72,1.65,331.61,1.21,310.45.46,309,1,307.51.79,306.06c-.7-4.4,1.15-6.8,5.44-7.92,6.34-1.66,11.84-5.18,17.38-8.54a26.65,26.65,0,0,1,3.91-2.17c1.24-.48,2.56-1.1,3.73,0s.77,2.46.26,3.71c-1.5,3.69-3.43,7.21-4.69,11-5.27,15.77-2.38,23.68,9.85,32.31,9.36,6.61,18.91,12.92,28.14,19.7A16.14,16.14,0,0,1,69.31,359.35Z"/><path class="cls-1" d="M536.23,410.34a438.14,438.14,0,0,0,2.06-46.95c2.1-15.82,6.52-31.2,9.31-46.9a42.2,42.2,0,0,1,15.3-25.65c7.07-5.77,12.71-13.15,18.81-20,5.83-6.51,7.22-14.35,5.52-22.91-1.47-7.37-.87-7.87,6.82-7.95,6.74-.06,13.21,1.43,19.67,3.13a5.43,5.43,0,0,1,4.33,4.28,458.81,458.81,0,0,1,1,46.91c.06,3.51-1.77,4.68-5.11,5.82-8.73,3-15.13,9.45-21.13,16.24-9,10.17-13.62,22.43-18.44,35-5.13,13.34-7.71,27.62-14.6,40.26-4.09,7.51-9.44,14.11-16.67,18.9C540.94,412,538.42,413.73,536.23,410.34Z"/><path class="cls-1" d="M235.12,153.29c3.29-15.61,6.81-31.15,13.06-45.91,1.53-2.18,3.32-1,4.85-.17,6.79,3.5,13.63,7,18,13.77a23,23,0,0,0,4.48,5.32c1.18,1,2.52,2,4,.81,1.67-1.39.32-2.66-.53-3.86-4.94-7-10.43-13.31-18-17.63-5.24-3-5.13-4.48-.08-8,1.36-1,2.81-1.79,4.12-2.81s3.3-2,2.13-3.89c-1.3-2.05-3.3-.76-4.86.12-2.6,1.47-5,3.34-7.48,5-1.17.74-2.79,2.27-3.49-.58q7.59-18.93,15.2-37.86c3.89-2.69,8-1.55,12-.52a86.1,86.1,0,0,0,24.64,3c3.85-.12,7.65-.2,11.25-1.71s6.15-.35,8,2.8c3.33,5.6,6.33,11.3,6.41,18.08.05,3.87,1.4,7.48,2.55,11.13,1.81,5.75,2.75,11.59,1.71,17.67-1.52,8.84-2.85,17.71-2.35,26.75.38,6.83-3.09,11.36-9,14.18-3.42,1.64-6.74,3.65-10.71,3.87-6.16.35-7.61-1.19-6.82-7.45,2.2-14.1,4.56-28.19,6.55-42.32.89-6.39,1.19-12.88,1.5-19.34.13-2.62-.1-5.86-3.06-6.71-3.22-.91-4.6,2.4-5.77,4.51a71.87,71.87,0,0,0-7.08,17A385,385,0,0,0,287,146.26c-1.5,1.74-3.59,1.68-5.54,1.56a88.1,88.1,0,0,0-40.77,7.36,8,8,0,0,1-3.86.81C235.08,155.82,234.42,155,235.12,153.29Z"/><path class="cls-1" d="M79.43,359.3c-2.52-11.46-3.59-23.11-4.29-34.8-.78-11.05-.15-22.09-.34-33.62,3.75,1.6,4.21,4.51,4.48,6.94,1.25,11.44,8.21,19.62,16,26.87,10.58,9.89,15,22.25,16.23,36a57.46,57.46,0,0,0,15,34.54c4.42,4.85,7.49,10.56,10.8,16.13,1.76,6.92,3.64,13.81,5.26,20.76a263.2,263.2,0,0,0,9.26,32.17c-4.05-.33-7.1-1.16-9.73-3.25a17.88,17.88,0,0,0-11.59-3.86c-6,0-11.79-2.23-17.84-2-1.38,0-1.9-.93-2.46-2-8.34-16.65-15.68-33.68-20.73-51.64-.17-.64-.21-1.32-.32-2C87,385.82,84.84,372.17,79.43,359.3Z"/><path class="cls-1" d="M217.4,449.23A279.53,279.53,0,0,1,221.83,480c.23,2.37-1.14,2.3-2.74,2.21q-7.91-.46-15.82-.89c-2.17-1-2.86-3.07-3.55-5.12C197,468,191.46,462,184.39,457.44c-3.59-2.32-8.1-2.75-11.8-5a13.55,13.55,0,0,1-3.32-2.11c-4.53-7.36-5.67-16-8.83-23.86-.92-2.28-1.54-4.67-2.29-7-.87-2-.25-3.54,1.58-4.65.57-.34,1.36-.53,1.7-1,8.76-12.47,24-20.43,26.2-37.43.59-4.55,3.58-7.83,5.6-11.59,3.78-7,7.41-14.18,11.92-20.79,1-1.5,2.77-5.43,5-.58,1,31.56,3,63,6.91,94.38a39.17,39.17,0,0,1,0,4.47c-2.56,2.07-4.65-.32-6.94-.73-1.43-.25-3.16-1.14-3.95.71-.87,2.06.92,2.86,2.41,3.66C211.39,447.41,214.67,447.58,217.4,449.23Z"/><path class="cls-1" d="M466.05,202.45c3.23,33.55,5.55,67.15,6.22,100.86.94,5.78.18,11.6.39,17.4,0,.91.41,2.13-.8,2.59a2.63,2.63,0,0,1-2.68-.95c-3.36-3.17-5.25-7.24-6.93-11.44-4.24-10.67-5.45-21.33-1.73-32.6a92.09,92.09,0,0,0,4-22.08c0-.49.16-1,.16-1.49,0-2,.12-4.65-2.29-4.91-2.77-.29-2.74,2.51-2.68,4.4.36,11-3.47,21.3-5.53,31.88-.6,3.1-1.56,6.13-1.32,9.36.21,3-1.05,3.33-3.64,2.25-7.37-3.07-13.22-8.32-19.19-13.3-4-3.37-8.66-6.33-11.16-11.3a10.38,10.38,0,0,1-1.08-5.81c1.36-12.39-.84-24.78,0-37.17.19-7.16,0-14.33.11-21.49.1-5.49,1.07-6.77,6.3-6.74A262.88,262.88,0,0,0,458,200C460.87,199.6,464.15,199.16,466.05,202.45Z"/><path class="cls-2" d="M170.19,169.43q-1.49,14-3,28.06c-.25,2.31-.62,4.6-.94,6.91-13.74,11.34-26.06,14.71-40.29,2.19-3.12-2.74-4.23-6.14-4.14-10.22.25-11.48.14-22.93-2.34-34.23-1.14-5.22-2.37-10.38-4.85-15.14a6.94,6.94,0,0,1-.54-5.76,27.12,27.12,0,0,1,4.18-6.82,7.73,7.73,0,0,1,5.19-1.41c9,.66,16.9-2.76,24.65-6.7,1.78-.9,3.49-2,5.49-2.29,6.92-1,13.54-3.28,20.35-4.72,5-1.06,6.44.19,6.34,4.15-3.35,11.84-5.66,23.91-8,36-.78,2.88-2.57,2.78-5,1.94-7.88-2.78-15.1-6.88-22.27-11.07a20.55,20.55,0,0,0-2.52-1.59c-1.17-.48-2.35-.53-3.12.64s-.22,2.25.64,3.14a18.73,18.73,0,0,0,4.91,3.37c6.92,3.61,13.64,7.63,21,10.31C167.75,166.8,169.37,167.6,170.19,169.43Z"/><path class="cls-2" d="M335.4,5.24c6.43,1.54,11.57,5.7,17.36,8.55a3.15,3.15,0,0,1,1.72,2.85c.06,1.14,0,2.57.64,3.37,7.51,9.46,4.21,20.49,4.65,31,.8,18.85-1.55,37.57-3,56.27-1.36,18-2.12,36.18-4.63,54.14-1.14,2.19-3.22,2.05-5.2,2-13.39-.32-26.76.6-40.14.51-5.37,0-5.37,0-4.68-5.55h0c2.16-1.73,4.74-1.31,7.2-1.29,9.14.08,16.38-3.85,22.18-10.62a14.27,14.27,0,0,0,3.69-11.94c-1.2-8.34.33-16.69,2.1-24.74,1.52-6.93-.21-13.19-1.47-19.6a107.2,107.2,0,0,1-2.17-11.73c-.65-7.48-4-14.07-7.88-20.29-2-3.15-2.33-5.68.56-8.35A13.13,13.13,0,0,0,330,43.29c2.93-11,5.12-22,2.17-33.4C331.43,7.24,330.55,4.14,335.4,5.24Z"/><path class="cls-1" d="M598.13,134.44c5.18,19,9.69,38.21,13,57.65,2.32,13.73,5,27.43,5.13,41.44a19.3,19.3,0,0,0,.78,3.77,3.81,3.81,0,0,1-4.15.82c-8-2.28-16.36-2.16-24.52-3.38a20.42,20.42,0,0,1-13.09-7.28c-3.51-4.16-7-8.35-10.87-12.18,0-1.61,0-3.22,0-4.82,6.21-13.84,8.14-28.73,10.44-43.49,1.55-9.91,3.42-19.51,9-28.24C588.11,132,590.32,130.81,598.13,134.44Z"/><path class="cls-1" d="M355.13,259.29c1.66-14,2.5-28.07,5-42a5.34,5.34,0,0,1,3.64-2.38c13.27-2.39,25.94-7.07,39-10.19a18.4,18.4,0,0,1,2.44-.46c4.59-.48,6,.73,6.32,5.35.08,1.33,0,2.66.15,4,.1,9.08-2.06,18-2.39,27-.58,1.48-.77,3.76-2.76,3.53-1.77-.21-2.05-2.39-2.39-4-.49-2.27-.67-4.6-1.36-6.82-.4-1.28-.92-2.84-2.53-2.57s-1.67,2-1.56,3.26a105.64,105.64,0,0,0,3.34,18.05c1.63,6.21,4.93,12,4.61,18.72-.76,7.29-.51,14.7-2.5,21.84-1.23,2.44-3.09,2.34-4.94,1-9.2-6.91-20.09-10.26-30.51-14.62-1.53-.64-3-1.39-4.5-2.15C355.33,272.24,353.88,269.43,355.13,259.29Z"/><path class="cls-1" d="M379.24,54.41c.29-11.64,1-23.57,4.18-34.48,2.54-8.66,10.14-15.81,20.05-18.3,14.8-3.72,28.63-.87,41.75,6.52a3.31,3.31,0,0,1,2,3c1.32,15.39,2.73,30.76,4.12,46.14,1.15,4.17-1.27,4.18-4.09,3.37A135.79,135.79,0,0,1,429.58,54,30.84,30.84,0,0,0,404,53.55c-6.85,2.85-14,2.33-21.11,2.22A5.36,5.36,0,0,1,379.24,54.41Z"/><path class="cls-3" d="M114.1,141.24c2.83,7.74,6.1,15.27,7.41,23.58a151.56,151.56,0,0,1,1.6,31.25c-.22,4.47,1.4,7.55,4.55,10.42,7.53,6.9,17.51,8.46,26.55,3.9q6-3,12-6l0,11c-1.38-2.61-3.09-1.43-4.93-.54-5.63,2.71-10.84,6.59-17.73,5.65a51.1,51.1,0,0,1-14.29-4.07c-1.7-.76-3.54-2-4.4.79-2.27,7.2-8,11.5-13.72,15.34s-6,9.07-6.79,14.64c-2,13.82,5.87,23.13,15.37,30.91,17,13.88,27.5,31.29,31.54,52.71,1.26,6.69,1.21,13.57,2.18,20.27,1.46,10,4.89,19.38,13.7,25.57,4.59,3.23,7.14,2.08,11-1.82,9.41-9.59,14.16-22,21.05-33.08,2.94-4.73,5.92-9.52,10-13.42l.93,15.06c-1.75-2.81-2.82-1-3.74.63-4,7-8,14.14-12,21.19-3,5.28-5.89,10.48-6.6,16.81A19.69,19.69,0,0,1,179,396a30.69,30.69,0,0,0-8,8.69c-3,4.54-5.58,9.52-11.27,11.44-1.6.54-1.38,2.08-1.6,3.35q-1.87-5.58-3.74-11.16c2.57-.81,5-1.82,6.58-4.2,3.87-6,7.93-11.8,14.85-16.31-13.82-.72-20.73-8.79-26-19.32-4.17-8.41-5.59-17.29-5.92-26.5-.53-14.67-6-27.74-13.18-40.42-.81,1.05-.56,2.27-1.54,2.84-2.21-4.08-.22-8.89-2.39-12.94-.92.7-.1,2-.61,2.93-1.13.33-1.9-.38-2.65-1-8.88-7.28-17.08-15.16-23.51-24.82-3.74-5.61-4.32-11.63-4.18-18,.18-8.12-.61-8.73-8.65-8.83-2.29,0-4.63.65-6.9-.27.79-3,.55-6.18,1.94-9,3.31-2.46,6.8-.41,10.13-.16a10.87,10.87,0,0,0,8.67-2.59c3.38-2.94,7-5.61,10.46-8.46,5.73-4.72,6.88-9.31,4.2-16.19a21.39,21.39,0,0,1-1.59-11.22c2-12.61-.88-24.77-3.39-37-.36-1.77-1-3.51-1.33-5.3C111,148.11,111.89,144.37,114.1,141.24Z"/><path class="cls-1" d="M80.35,241.42c5-2.13,10-1,15.08,0,1.76.35,1.87,1.59,1.87,3a76.31,76.31,0,0,1-.07,9c-.81,6.82,2.4,12,5.93,17.4,5.37,8.14,12.85,14.12,19.93,20.55,1.09,1,2.11,2.07,3.15,3.11.08,8.8,0,17.61.25,26.4.52,17.93,1.48,35.82,4.46,53.54.9,5.3.65,10.77,2.42,15.93.38,1.09.94,2.35-.4,3-1,.53-1.85-.43-2.54-1.12-7.59-7.53-11.83-16.69-13.5-27.2-2-12.3-2.91-25.06-11.18-35.25-5.24-6.45-11.18-12.33-16.37-18.84-1.37-1.71-2.86-3.42-3.26-5.56-2.3-12.26-8.59-23.42-9.77-36C76.32,259.85,79.22,250.76,80.35,241.42Z"/><path class="cls-1" d="M54.27,136.4C61.63,124.23,71,113.65,80.36,103c1-1.13,2.07-2.33,3.66-2.45C91.5,100,97.85,95.92,104.9,94a8.43,8.43,0,0,0,6.71-7.81,22.8,22.8,0,0,1,7.89-15c9.29-8,17.49-17.46,28.69-23.12a15.29,15.29,0,0,1,5.05-2,56.7,56.7,0,0,0,16.88-4.21c.95-.43,2.17-.25,3.94-.4-3.56,4.36-7.35,7.66-9.89,12-2.44,2-5.08.26-7.61.41-1.77.11-4.19-.42-4.72,1.67-.67,2.62,2.07,2.31,3.61,2.89s3.3.9,2.92,3.2c-14.12,15.15-24.22,33.23-36.2,49.93-3.26,4.55-5.45,9.86-8.13,14.82-2.06,1.87-4.63,1.58-7.09,1.57-11.31-.06-22,1.69-31.65,8.4-5.86,4.1-12.74,2.72-19.33,2.13A1.66,1.66,0,0,1,54.27,136.4Z"/><path class="cls-3" d="M229.44,443.23c6.15.64,11.81-1,17.33-3.54,8.09-3.7,16.28-5.63,25.5-4.72,10.33,1,19.88-2.45,28.12-9.2,8.76-7.16,17-14.82,23.93-23.78,10.3-13.4,13.18-29.39,14.85-45.67.55-5.27.62-10.6,1.14-15.88.29-2.95-.9-4.43-3.67-4.7-12.32-1.17-24.31-1.38-33.47,9.26a36.25,36.25,0,0,1-12.24,9.15l-.93-8.53c5.07-4.72,9.79-9.87,15.62-13.7,5.1-3.35,10.63-5.29,16.89-4.93s12.62-.57,18.84.94c1.71.41,3.28-.26,4.89-.58l1.87-1.1c-1.21,5.5,3.05,7.36,6.47,9.87,6,4.38,11.58,9.38,18.3,12.61,13.26,6.36,27.34,9.72,41.91,11.71,6.44.88,13,3.09,17.39,8.68,1.65,2.08,3.59,1.12,5.46.63a41.08,41.08,0,0,1,24.05.64,31.93,31.93,0,0,1,4.54,2.06,3.61,3.61,0,0,1,1.71,5.09c-.92,2.12-2.9,2.16-4.69,1.31a32.59,32.59,0,0,0-10-2.93,24.31,24.31,0,0,0-5.92-.47c-2.95.36-6.64.36-8.54,2.11-2.77,2.56,1.51,4.78,2.19,7.36A31.79,31.79,0,0,0,452.3,402c2.06,1.65,3,3.88,1.23,6.1s-3.91.51-5.7-.57c-6.14-3.72-9.8-9.64-12.17-16-2.5-6.64-6.29-12.5-9.91-18.35-2.45-4-8-5.32-12.75-5.81a130.32,130.32,0,0,1-43.3-12.09,72.22,72.22,0,0,1-18.45-12.44c-.91-.85-1.67-2.55-3.16-1.85s-.78,2.4-.79,3.64a152.21,152.21,0,0,1-5.51,38.79,64.2,64.2,0,0,1-13.21,25c-7.69,9-15.62,17.78-25.47,24.47-7.92,5.39-16.45,9.81-26.35,9.34-11.18-.54-21.74.74-31.86,6-3.78,2-8.51,2.17-12.81,3.18C231.21,448.72,230.33,446,229.44,443.23Z"/><path class="cls-1" d="M346.24,327.35c-.47,2-1.08,3.16-3.71,2.34-8.09-2.51-16.48-1.66-24.7-1.12-6.6.44-12.17,4.06-16.92,8.67-3.32,3.22-6.33,6.81-10.91,8.38-1-10.39-5.62-19.39-10.84-28.16-2.27-3.22-.47-5.52,1.64-7.9,8.74-9.91,19.86-16.67,31.05-23.26,7.46-4.4,15-8.62,22-13.78,1.78-1.31,3.53-2.92,5.42-.15C344.88,290.28,345.64,308.81,346.24,327.35Z"/><path class="cls-1" d="M605.26,131.36,604,127.57c-.18-5.33,2.23-10.18,2.87-15.38.46-3.74,2.06-7.32,1.66-11.22-.17-1.67.49-3.4,2.37-2.85,9,2.67,16.87-1.08,25-3.87a2.27,2.27,0,0,1,2.34.14c13.85,7.74,27.11,15.83,33.42,31.8,3.81,9.65,9.56,18.55,10.17,29.66a9.6,9.6,0,0,1-4.72-1.3c-4.92-2.36-9.11-5.88-13.74-8.72-8.38-5.15-17.46-7.12-27-7-10,.14-19.17-3.44-28.61-5.81A5.75,5.75,0,0,1,605.26,131.36Z"/><path class="cls-1" d="M552.32,125.33c-3.24-10.47-4.56-21.38-7.18-32-4.41-17.82-7.6-35.94-13.2-53.47-1.94-6.07-3.37-12.3-5.26-19.3,7.14,3.11,11.1,8.36,14.75,13.51,4,5.68,5.91,7.2,12.56,6.3C564.1,39,564.12,39,568,48.14c1.14,2.73,2.16,5.52,3.24,8.28-4.62,12.36-4.12,24.68.23,37a19.05,19.05,0,0,1,1.16,6.85,77.88,77.88,0,0,0,2,18.75c1.28,5.85-.29,7.86-6.26,7.75C563,126.67,557.44,128.3,552.32,125.33Z"/><path class="cls-1" d="M229.21,186.36c1.64-7.21.87-14.76,3.22-21.86a7.26,7.26,0,0,1,2.61-2.25c14.85-6.4,30-11.59,46.53-10.26,1.67.13,3.32.2,4.63,1.44-1,12.48,2.2,24,8.13,34.87a106.17,106.17,0,0,0,6.48,11.18c1.71,2.66.42,3.63-2,4.07a14,14,0,0,1-7.37-.81c-10.45-3.8-21.62-3.37-32.32-5.72a226,226,0,0,0-25.56-4.13C228.48,192.37,228.43,192,229.21,186.36Z"/><path class="cls-1" d="M478.38,124.35v-1.88a3.24,3.24,0,0,1,3.59-2.09c13.62.66,27.22-1.3,40.85-.44,4.51.29,9,.91,12.3,4.5,3.42,7.29,5,15.16,7.21,22.82,1,2.54-.38,4-2.27,5.4-10.4,7.51-21.17,13.64-34.8,12.3-5.93-.58-11.95-.08-17.93-.11-2.15,0-4.36.14-6.15-1.44q-1.05-13.95-2.11-27.89C478.08,131.85,479.33,128,478.38,124.35Z"/><path class="cls-1" d="M361.16,205.34q2.64-21.94,5.26-43.88a3.8,3.8,0,0,1,3.63-3.42c11.28-1.74,22.21-5.51,33.76-5.75a38,38,0,0,1,7.4.68c2.62.45,4.21,1.8,4.36,4.57-.38,11.47-.49,23-2.07,34.35a13.78,13.78,0,0,1-1.6,5.23,4.89,4.89,0,0,1-3.33,2c-14.63,2.25-28.27,8.46-42.9,10.76C361.22,210.58,360.66,210.14,361.16,205.34Z"/><path class="cls-1" d="M473.34,66.37C471.63,48.19,470,30,468.13,11.84c-.42-4,1.07-5.25,4.77-5.58,9-.78,17.94-.34,26.91.12,2.29.12,2.91,1.37,3.46,3.4,3.9,14.22,8,28.4,12,42.6,1.22,3-.46,4.74-3,5.81a48.94,48.94,0,0,0-9.36,5.6,11.69,11.69,0,0,1-5.84,2.64c-6.43.46-12.87.68-19.21,2.13A3.74,3.74,0,0,1,473.34,66.37Z"/><path class="cls-1" d="M518,62.52q7.2,25.35,14.38,50.69c.7,3.27-1.7,3.39-3.6,3-14.36-2.94-28.72,0-43.08-.24-2.62,0-5.34.32-7.63-1.49-2.25-11.54-2.51-23.24-3.05-34.93-.59-5.8-.62-6.36,4.89-6.59,11.93-.49,23.27-2.37,33.06-9.89C514.32,62.07,516.18,61.09,518,62.52Z"/><path class="cls-2" d="M68.35,254.45a320.09,320.09,0,0,0-.95,89.8c.4,1.43,1,3.18-.39,4.09s-2.86-.27-4-1.2c-7.83-6.22-16.53-11.18-24.59-17.07-9.13-6.67-11.71-14.73-7.67-25.32,2.89-7.57,7.64-14.52,7.61-23.06a3.62,3.62,0,0,1,1-2.27C46.54,271,52,261,60.64,253.72a18.34,18.34,0,0,1,3.62-2.64c1.19-.58,2.58-1.51,3.73-.69C69.4,251.38,68.84,253,68.35,254.45Z"/><path class="cls-3" d="M695.09,321.44c1.09-.55,3,.24,2.46-2.53a27.17,27.17,0,0,0-20.82-21.67c-3.47-.83-6.4-2.84-9.14-5-3.55-2.78-7.59-4.54-12.5-7.1,2.11,4.54,3.64,8.27,5.54,11.81s2.59,7.53,4,11.24a8.34,8.34,0,0,1-.09,6.32c-4.06,10.07-10,18.83-18.74,25.34-6.95,5.14-14.28,9.76-22.58,12.53,1.14-4,.33-8.22,1.87-12.12,2,1.18,3.84.51,5.6-.6,9.79-6.14,18.91-12.9,23.93-23.89a10.72,10.72,0,0,0,.71-8.09C652.23,297,646.61,287.25,642.4,277c-2-4.83-6.32-8.86-9.94-13a40.75,40.75,0,0,1-4.17-5.54q-.48-7-.95-14.12c4.08,7.29,10,13.31,16,18.66,3.54,3.12,9.9,3.3,15.09,4.26,7.16,1.32,14.44,2,21.61,3.21a23.92,23.92,0,0,1,13.56,6.84,8.82,8.82,0,0,1,2.43,4.27,3.68,3.68,0,0,1-2,4.2,2.71,2.71,0,0,1-3.9-1c-3.33-5.42-8.7-6.81-14.41-7.64L654.37,274c2.44,4.49,6.55,5.27,9.52,7.52,7.9,6,17.52,8.53,25.87,13.55a29.25,29.25,0,0,1,12.07,14.07c.88,2.1,1.74,3.23,4.17,3.4,4.16.3,8.28,3.5,11.8,3,3.09-.44,3.79-6.21,6.59-9.14,3.42-3.58,8.06-6.53,8.86-12.11,2.21,3.87.67,8,.82,12.05.2,5.4.93,10.89-.76,16.22-2.7-3.13-.61-7-1.6-10.38-6.49,4.17-6,8.33,1.35,12.18.16,1.38.28,3-1.79,2.48-7.63-2-15.72-.69-23.24-3.35.92-1.3,2.24-1.15,3.49-1.12-1-.54-2.24-.42-3.39-.73-2.73-.74,0,1.51-1,1.71C703.3,321.69,699,323,695.09,321.44Z"/><path class="cls-1" d="M271.08,49.3a218.4,218.4,0,0,1,17.76-35c.36-.55.57-1.46,1.06-1.64,10.65-3.94,19.43-13.43,32.25-11,4.56,3.78,6,9.05,6.41,14.56.54,6.82-.47,13.64-1.4,20.35-1.44,10.31-10.71,18.3-21.45,19.13-11.26.86-22.11-2-33-4.33C271.74,51.16,270.86,50.6,271.08,49.3Z"/><path class="cls-1" d="M243.11,108.48c-1,3.3-1.7,6.69-2.9,9.91-4.19,11.17-5.75,23-9.06,34.41-.54,1.89-1.32,3.7-2,5.55a59.29,59.29,0,0,1-27.31,6.38c-4.45-.06-8.91-.88-13.39-1.06-2-.09-4-.53-5.33-2.27,4.43-13.76,7.27-28.07,14.09-41,1.8-1.58,4-1.39,6.16-1.34a50.06,50.06,0,0,0,28.82-7.77C235.33,109.29,238.71,106.36,243.11,108.48Z"/><path class="cls-2" d="M123.09,125.24c3.25-6.88,5.84-14.12,11.21-19.8,7.76-5.4,16.72-8.8,24.16-14.78,2.85-2.29,5.9-4.34,8.3-7.1,5.13-5.89,12.26-9,18.53-13.22,3.76-2.56,11.11,1.24,11,5.12q-6.51,18.48-13,37c-1.14,2-3.13,2.12-5.15,2.41-12.28,1.77-24.61,3.16-35.78,9.42a35.64,35.64,0,0,1-14.76,4.26C125.48,128.66,122.49,129.17,123.09,125.24Z"/><path class="cls-1" d="M218.34,67.37c0-.33-.08-.72.07-1,10.43-17.83,17-37.65,28.32-55,1.6-2.46,2.78-3.7,6.12-3.43,7.1.59,14.06,2.68,21.27,2.13,2-.15,2.92.74,1.91,2.65C270.12,23.9,268.42,36.61,263.18,48c-.55,1.18-1.24,2.3-1.86,3.45a19.56,19.56,0,0,1-6.72,4.17c-8.61,3.45-17.14,7.06-25.48,11.14C225.78,68.42,222.08,70.05,218.34,67.37Z"/><path class="cls-4" d="M271.08,49.3c12.7,2.93,25.35,7,38.6,4.17A21.37,21.37,0,0,0,326.25,33a61,61,0,0,1,.91-9.9c1.44-7.82-1.59-14.7-5-21.44C326.73,2.23,331,4,335.4,5.24c-2.09.16-3.2.46-2.35,3.28,4,13.14,1.11,25.88-2.84,38.5-.14.47-.28,1.11-.64,1.32-6.8,4.11-3,8.42-.41,12.89,3.59,6.07,6.08,12.52,6,19.77-.05,5.36,2.18,10.42,3.53,15.38,1.82,6.67-.43,12.4-.88,18.52-.53,7.24-2.44,14.34-.84,21.73,1.09,5-5.58,13.59-11.73,17.37-7.27,4.47-15,4.8-23.09,4.33,1.32-4.23.24-8.84,2-13,.26,5.89,2.74,7.68,9.18,5.79a37,37,0,0,0,10.29-4.9c3.84-2.6,6.15-6.27,5.7-11.42-.86-9.85.9-19.5,2.64-29.15.9-5-.51-9.9-2-14.61a54.25,54.25,0,0,1-2.8-13.56c-.29-6.69-3.85-12.24-7.34-17.71-.87-1.37-2-1.42-3.46-.85-11.89,4.71-23.84,2.74-35.71,0-4.75-1.08-9.41-2-14.27-1.42Q268.75,53.41,271.08,49.3Z"/><path class="cls-2" d="M109.44,151.52c3.74,3.65,3.92,8.72,4.53,13.28,1.31,9.82,3.56,19.63,1.53,29.7a17.19,17.19,0,0,0,1.73,10.68,13.78,13.78,0,0,1-4,16.64c-4.54,3.63-9.16,7.16-13.6,10.91-3.77,3.18-7.59-.28-11.4.33-1.88.3-3.93-.41-5.9-.67,2.18-9.16,3.81-18.5,6.65-27.45C94.71,186.74,101.14,168.76,109.44,151.52Z"/><path class="cls-2" d="M462.35,166.3a118,118,0,0,1,2,18c1,13.08.89,11.2-9.84,11.85-9.93.6-19.79,2.31-29.79,1.83-2.85-.14-5.74-.18-7.23-3.3-1.56-6.19-.53-12.5-.8-18.74.37-5.47,0-10.94.22-16.41.2-4.33,1.58-5.58,5.92-5.35a24.66,24.66,0,0,1,8.3,1.47c8.46,3.54,17.48,5.15,26.2,7.75C459.25,164,461.12,164.55,462.35,166.3Z"/><path class="cls-2" d="M257.34,61.42c-.7,9.88-5.57,18.49-8.47,27.71-1.18,3.75-2.56,7.45-3.85,11.17-.63.77-1.23,1.68-2.24,1.89-7.92,1.7-14.49,6.37-21.62,9.79-6.26,3-13,1.42-19.53,2.21a1.53,1.53,0,0,1-1.63-2c2.05-9.4,6.77-17.72,10.61-26.41,1.65-3.74,3.26-7.51,4.89-11.27,1.57-1.61,3.63-1.57,5.61-1.45,5.21.3,9.83-1.39,14.17-4,5.46-3.29,11.47-5.29,17.33-7.63C254.12,60.86,255.75,60.17,257.34,61.42Z"/><path class="cls-2" d="M628.29,258.45c7.05,6,13.4,12.87,16.75,21.53,3.75,9.7,9.51,18.54,12,28.79a8.27,8.27,0,0,1-.28,5.6c-4,9.68-11,16.75-19.46,22.53-2.86,2-6,3.56-8.91,5.4-2.54,1.58-3.1.14-3.27-2q1.59-15.93,3.2-31.87,1-24,0-48.07Z"/><path class="cls-4" d="M552.32,125.33l18,0c1.94,0,4.37-.33,3.53-2.81-3.29-9.76-1.08-20.27-4.21-29.92-3-9.19-4.06-18.37-2.34-27.85.56-3.07,1-6.31,3.92-8.29l3.75,8.18c-.24,12.34,2.54,24.24,5.06,36.19,1.16,5.52.36,11.24,1.86,16.78,1.74,6.44,1.76,6.75,8.44,7.51a29.46,29.46,0,0,0,5,.23l2.86,9.13c-7.47-1.82-11.43,1-15.1,8.06-4.23,8.14-5.57,16.6-6.82,25.2-1.76,12.14-4.6,24-7.3,36-.64,2.82-1.8,5.36-4.56,6.79l-2.07-18.12c1.53-3,2-6.3,2.54-9.56q2.19-13.53,4.27-27.08a45,45,0,0,1,6.57-17.11c2.5-4,2.07-4.69-2.67-4.76s-9.32,0-14,0c-2,0-4,.2-5.68-1.3Z"/><path class="cls-3" d="M564.39,215.28c5.2.67,7,5.5,9.58,8.76,4.93,6.19,10.71,9.8,18.54,9.89,8.32.1,16.33,2.29,24.51,3.37q.51,5.07,1,10.13a6,6,0,0,0-3.88-2.85c-7.59-1.85-15.19-3.54-23.1-3.31-2.65.07-4.08.24-3.07,3.59,3.94,13.16-.7,23.58-10.34,32.64-6.28,5.9-12,12.38-18.12,18.46-7.87,7.8-11,18.3-12.37,29.29-1.58,13-5.24,25.59-8.88,38.14q-.57-17.5-1.12-35c1.26.58.54,2.15,1.74,3.21,1.11-10,2.64-19.68,7.19-28.61,2.28-4.47,4.53-9,8.29-12.28,7.27-6.34,13.53-13.64,20.26-20.48,8.37-8.51,10.49-21.07,4.17-31.1-2.89-4.58-8.57-7.17-12.09-13.49-.34,3.28-.53,5.1-.72,6.92-1.84-3.89-.25-8-.81-12C565,218.79,564.66,217,564.39,215.28Z"/><path class="cls-3" d="M68.35,254.45c.06-3.18-1-4.22-3.87-2.11-6,4.41-10.68,10-15.06,15.86-2.78,3.73-5.21,7.71-8.48,11.07a4.15,4.15,0,0,0-1.43,2.51c.53,8.49-4.36,15.22-7.25,22.56-4.41,11.23-2.08,18.19,7.76,25.33,7.79,5.66,16.44,10.08,23.62,16.57,3.23,2.91,3.57.67,3.76-2q1,7.54,1.91,15.1c-11.06-8.79-23-16.37-34.45-24.56-12.07-8.6-14.54-17.27-9.6-32.14,1.64-4.93,4-9.63,6.29-15.09-4.87.85-7.92,3.53-11.22,5.52-4.17,2.51-8.39,4.95-13.08,6.05s-6.84,3.46-5.85,8.36a11.49,11.49,0,0,1-.19,3c-1.71-4.3-1.4-8.95-.36-13.06.69-2.73,4.11-4.78,6.3-7.13a1.59,1.59,0,0,0,2.18.5c7.49-4.26,15.21-8.11,22.28-13.13,4.62-3.28,7.88-7.66,10.88-12.2,3.79-5.75,9-10.23,13.11-15.68,2.19-2.91,5.75-4,8.78-5.58,3.45-1.81,5.84-4.07,6.83-7.81Q69.77,245.4,68.35,254.45Z"/><path class="cls-2" d="M599.4,112.29C591,88.44,581.76,64.91,571,41.7c5.72-1.33,8.87,2.47,12.29,4.61,8.15,5.09,15.78,11,23.74,16.43,7.56,5.15,10.44,13.54,14.86,20.87,1.28,2.13,2.34,4.39,3.51,6.59.88,2.72-1.09,3.06-2.92,3.42-8.73,1.71-14.56-1.16-18.67-9.14-.67-1.31-1.25-3.16-3-2.68-2.29.61-2.11,2.78-1.71,4.56.85,3.88,2.52,7.52,3.55,11.36a20.53,20.53,0,0,1,0,12.22C602.14,111.26,602,113.63,599.4,112.29Z"/><path class="cls-2" d="M169,55.24a57,57,0,0,1,7-10.19,10.8,10.8,0,0,1,7.47-4.26c4.72-.48,7.69-4.08,10.15-7.5a52.27,52.27,0,0,1,34.47-21.73,35.42,35.42,0,0,1-5.92,11.8c-8.35,11.37-13,24.52-18.84,37.09-.84,1.79-1.35,3.76-2.92,5.13-4,2.34-7.87.56-11.58-.5-5.91-1.69-11.38-4.65-17.18-6.72C170.33,57.88,168.82,57.2,169,55.24Z"/><path class="cls-2" d="M173.18,198.32q3.58-14.43,7.18-28.86c4.14-2.65,8.77-1.82,13.11-1.25,9.4,1.25,18.55.86,27.58-2.14,2-.68,4.2-1.29,6.16.35a124.26,124.26,0,0,1-5,25c-2.21,2-5,1.25-7.57,1.75-12,2.37-24.24,3.05-35.87,7.15C174.94,201.65,173.94,201,173.18,198.32Z"/><path class="cls-5" d="M129.24,304.4c.1-1.43.19-2.86.32-4.83,5.69,4.38,7,10.78,9.69,16.31,5.71,11.66,5.43,24.43,7.12,36.88,1.55,11.45,6.12,21.7,15.39,29.2a17.72,17.72,0,0,0,15.82,3.79c.65,2.09-1,2.93-2,3.64-5.6,3.88-9.33,9.25-13.07,14.8-1.62,2.41-3.34,6.88-8.08,4.12-8.58-27.25-16.88-54.58-22.08-82.72C131,318.58,130.26,311.47,129.24,304.4Z"/><path class="cls-3" d="M536.23,410.34c4.74,2.21,7.61-1.43,10.29-3.9,9.37-8.64,15.27-19.46,18.64-31.73,4.39-16,9.59-31.84,17.42-46.34,6.7-12.41,16.55-22.83,29.67-29.3,2.52-1.25,6.66-.07,6.79-4.73-.17,5.06.71,10.18-.69,15.19,0-4-1.39-4.83-5.07-2.82a58.14,58.14,0,0,0-14.59,12c-8.84,9.53-13.69,21.19-18.26,33.33-5.37,14.26-8.17,29.49-15.61,42.91-4.17,7.52-9.44,14.45-16.54,19.68-3.88,2.85-8.53,3.52-13,4.8C535.62,416.38,535.92,413.36,536.23,410.34Z"/><path class="cls-3" d="M76.35,269.35c3,11,8.09,21.37,10.07,32.68,1,5.41,4.86,8.94,8,13,4.61,5.89,10.53,10.65,14.62,17,6.16,9.52,7.41,20.54,9,31.29,1.4,9.69,4.73,18.15,11.16,25.46,1.17,1.33,2.24,2.75,3.53,4.34.29-1.21.47-2,.66-2.8q1.95,10.55,3.91,21.09c-4.45-2.37-5.17-7.58-8.39-11-9.22-9.67-16-20.77-18.06-34.2-.94-6.23-1.86-12.42-3.23-18.58-1.61-7.28-5.25-13.17-10.14-18.55s-10-11.13-14.82-16.82c-4-4.69-2.83-11.14-5.24-16.42-.52-1.13-.53-2.5-2.26-4.45V324.5c-1.64-12.08-1.09-24.2-.51-36.3C74.94,281.9,75.76,275.63,76.35,269.35Z"/><path class="cls-3" d="M420.16,273.41c9.23,9.56,19.41,17.88,31.28,24.17-.23-10.29,3.48-19.88,5.57-29.76A71.38,71.38,0,0,0,458.26,253c0-2.71.42-5.38,3.66-5.48,3.6-.11,4.18,2.92,4.12,5.65a109.36,109.36,0,0,1-3.29,22.08c-1,4.19-1.94,8.39-2.65,12.63-2.14,12.63,2.81,23.28,9.62,33.34a16.27,16.27,0,0,0,2.55,2.16V303.31a90.62,90.62,0,0,1,0,29c-6.54-3.07-10.83-8.6-13.65-14.74-3.19-7-8.63-11.67-14.44-15.4-8.43-5.4-15.84-12-23.9-17.78C417.91,280.77,418.05,277.1,420.16,273.41Z"/><path class="cls-5" d="M553.34,132.49c7.79,0,15.58,0,23.38-.12,2.55,0,4.26.62,2.27,3.27-9.27,12.33-9.13,27.27-11.78,41.45-.81,4.37-1,8.86-2.77,13-.45,1.07-.55,2.33-2.16,2.2-2.47-18.7-5-37.39-8.55-55.93C553.49,135.12,553.46,133.8,553.34,132.49Z"/><path class="cls-3" d="M481.1,328.27a9.36,9.36,0,0,0,2.43,6.24c7.2,8.07,10.67,18.28,15.46,27.73,1.57,3.1,2.9,6.32,4.45,9.43,3.15,6.35,7.42,8.12,14.37,5.93a18.77,18.77,0,0,1,7.29-1.29c-.25,2.72-.51,5.45-.77,8.17-2.75,1.09-6.91.78-8.11,2.87-1.33,2.31,2.87,4.23,3.81,6.86a13.34,13.34,0,0,0,1.24,3.21c-1.76,4.87-1.8,10.08-2.94,15.07-.19-6.28-3.68-11.74-7.12-16-11.29-13.85-18.24-29.89-25.79-45.71-1.49-3.13-2.76-6.45-6-8.31C480.43,337.82,479.6,332.91,481.1,328.27Z"/><path class="cls-3" d="M632.29,453.5c-.1-6.37,2.08-12.37,2.92-18.57,1.48-11,3.14-22.12-2.71-32.49-1.15-2-1.65-3.67.34-5.22,2.2-1.71,4.14-.8,5.63,1.06,3,3.76,4.07,8.28,4.68,12.91.45,3.44.63,6.93.91,10.39.12,1.6.36,3.67,2.42,1.76,8.6-8,19.12-7.38,29.63-7a11.13,11.13,0,0,1-3.05,7.9,9.25,9.25,0,0,1-3.45.42c-10.25-1.32-17.44,4.32-24,10.87-3.86,3.83-3.85,9-3.22,14Z"/><path class="cls-3" d="M169,55.24c10,4.73,19.91,10,31.4,10.34l-4.15,9.88c-.84-2.62-8.85-6.25-10.31-4.26-3.11,4.24-8.44,4.27-12,7.71a137.58,137.58,0,0,1-22.37,18,102.76,102.76,0,0,1-17.34,8.5l8-12c11.62-7.43,21.55-17,32.51-25.81-3-2.54-7.68-2.22-10.57-5.21C165.83,60,167.43,57.62,169,55.24Z"/><path class="cls-3" d="M229.21,186.36c-.41,3.92,1.15,5,5.25,5.35,13,.93,25.72,4.62,38.69,6,7.81.81,15.2,2.92,22.76,4.57,1.52.33,3.65.95,4.7-.42s-1-2.53-1.56-3.83c-1.41-3.3-4.35-5.87-4.72-9.69,5.52,7.17,9.58,15.21,13.74,23.19-8.84-2-17.81-3.44-26.67-5.34-8.56-1.85-17.59-2.6-26.41-3.82-7-1-13.86-2.91-21-3.13-4.64-.14-6.35,1.27-5.68,5.82a24.72,24.72,0,0,1-.11,4.46c-1.53-2.6-1.33-5.64-.76-8.16C228.52,196.35,227.37,191.18,229.21,186.36Z"/><path class="cls-4" d="M339.26,272.37c-1-.52-1.94-1.2-3.16-.21-12.88,10.48-28.35,16.92-41.69,26.72-5.11,3.75-9.45,8.28-13.94,12.68-1.73,1.7-1.86,3.71-1.31,5.9L270,303.58c3.12,4,5.29,2.48,8.43-.57,11.37-11,24.91-18.95,38.63-26.68,6.7-3.77,13.76-7.36,18.32-14.05Z"/><path class="cls-4" d="M379.24,54.41c9.76.22,19.38.26,28.75-3.66,10.36-4.32,19.66,1.09,29,4.62,3.7,1.4,7.49,2.6,11.09,4.22,2.82,1.27,3-.34,3.24-2.31,1.54,3.59.46,7.4.95,11.07-8.55-2-16.62-5.44-24.62-8.88-7.11-3-14-3.93-21-.7-6.58,3-13.51,3-20.46,2.68-4.68-.25-8.54.09-8.81,6C376.6,62.91,378.91,58.8,379.24,54.41Z"/><path class="cls-5" d="M595.27,125.31c-.16,1.72-1,2-2.7,1.81-11.34-1.5-13.13-3.56-13.44-17.12-.17-7.49-.66-14.92-3.23-22-2.81-7.76-2.08-15.55-1-23.41a539.91,539.91,0,0,1,18.14,52.61C593.87,119.89,594.54,122.61,595.27,125.31Z"/><path class="cls-3" d="M599.4,112.29c3.44-3.76,3.37-8.23,2.26-12.71-.87-3.52-2.3-6.89-3.39-10.36a25.9,25.9,0,0,1-1.08-4.81c-.27-2.4.63-4.32,3.18-4.87s3.72,1.23,4.33,3.19c1.1,3.57,2.5,6.52,6.26,8.35,4.38,2.13,8.71,1.32,13.11,1,.48,0,.88-1.24,1.33-1.9,3.3,4.35,8.69,2.3,12.8,4.19-6.49,1.86-12.13,6.52-19.36,5.9-3-.26-5.9-.69-8.77-1A91.24,91.24,0,0,1,604,127.57Q601.7,119.94,599.4,112.29Z"/><path class="cls-4" d="M605.26,131.36c7.54,1.81,15,3.83,22.63,5.36,7,1.41,14.23.18,21.19,1.85a58.7,58.7,0,0,1,28,16c-3.27-.87-6.59-1.59-9.8-2.64s-2.22.81-1.92,2.36a45,45,0,0,0-27.65-9.67,82,82,0,0,1-24.93-4c-1.33-.43-3.06-1.76-4.63-.14Z"/><path class="cls-6" d="M481.19,163.41c8.48,0,17-.54,25.42.16,11.83,1,21.26-4.08,30.29-10.53,2.09-1.5,5.6-2,5.44-5.78q1.36,5.1,2.74,10.21c-4.62.38-7.45,4.08-11,6.26-7.92,4.82-16.09,7.42-25.45,6.87-7.28-.43-14.61-.08-21.92-.08-1.82,0-3.67-.2-5.29.94C481.33,168.78,481.26,166.09,481.19,163.41Z"/><path class="cls-4" d="M123.09,125.24c.5,2.7,2.65,2.17,4.32,2a41.05,41.05,0,0,0,15.07-4.52c11.24-6.22,23.6-7.76,36-9.3,1.65-.2,3.3-.14,4.8-1q-1.48,5.52-3,11c0-1.89-.45-3.24-2.8-3-2,.17-3.95,0-5.89.71a60.39,60.39,0,0,1-15.41,3.76c-5,.45-8.78,3.74-13.14,5.65-7.95,3.5-16.23,4.41-24.78,3.89Q120.7,129.83,123.09,125.24Z"/><path class="cls-4" d="M54.27,136.4c6.8,1.54,14,3,20-1.22,9.74-6.83,20.43-8.76,31.85-8.72,2.64,0,5.29-.12,7.93-.18q-2.91,5-5.8,10.09c-.12-2.17-1.68-2-3.2-2.09-9.43-.37-18.41.76-26.26,6.75-3.8,2.9-8.25,3.82-13.09,3.55-5.45-.3-10.91-.12-16.37-.15C50.25,141.31,52.39,138.94,54.27,136.4Z"/><path class="cls-4" d="M478.1,114.49c12.14.78,24.19-1.29,36.32-1,5,.1,10,.07,14.79,1.49,1.84.54,2.87.24,3.2-1.72,1.7,3.55,2,7.44,2.72,11.23-13.31-5-27-3.26-40.65-2.33-3.8.26-7.6.65-11.36-.24a5.51,5.51,0,0,0-4.73.6Z"/><path class="cls-4" d="M355.13,259.29c-1.45,9.31,4,14,11.58,17.25,6.25,2.69,12.48,5.45,18.81,7.93a54,54,0,0,1,14.61,8.42c1,.85,1.88,1.26,3,.46,1.59,6.56.6,13.1-.09,19.64a1.74,1.74,0,0,1-1.76,1.48,3.63,3.63,0,0,1-.23-1.45c2.64-10-4.21-14.27-11.22-18.3-9.24-5.29-19.66-8-29.06-12.93-2.62-1.39-4.49-4-7.62-4.43C354.75,271.43,353.06,265.16,355.13,259.29Z"/><path class="cls-4" d="M251.22,95.39c1.47,1.77,2.26,0,3.22-.65,2.93-1.91,5.73-4,8.75-5.75,2-1.14,4.34-1.42,5.65,1,1.17,2.16-.21,3.83-2,5-2.46,1.71-5,3.27-7.47,5-1.72,1.18-2.31,2.35.16,3.52,9.18,4.35,15.24,12.08,21.28,19.84,1.29,1.65,1.84,3.19.19,4.83s-3.63,1.74-5.29.05a40.83,40.83,0,0,1-5.55-6.37c-4.84-7.55-12.62-11-20.12-14.85-.45-.23-1.25.22-1.89.35C249.45,103.45,249.31,99.16,251.22,95.39Z"/><path class="cls-3" d="M724.92,240.54c-4.42-.27-6.3,2.61-8,6.08-3.2,6.56-2.85,13.49-2.78,20.46,0,3.07,1.37,7.86-3.4,7.94s-3.5-4.7-3.56-7.78c-.18-10-.11-10-9.71-10.68-1.65-.11-3.31-.1-5-.18-2.25-.11-4.06-1.12-4.09-3.47s1.75-3.42,4-3.52a19.06,19.06,0,0,1,4.47.06c5.8,1.13,9.38-2.07,12.58-6.14,2-2.52,2.38-4.68-1.3-6Z"/><path class="cls-3" d="M703,236.52c-3.14.33-6.89-1.8-8.89,2.94-.72,1.72-3.26,1.13-5,.36-11.32-4.95-20.37-20.73-16.7-32.35,2.41-7.64,2.58-16,3.76-24,2,7,4.79,13.74,6.06,20.93-2.48,6.51-2.62,12.93,1.08,19.05.86,1.42,1.47,3.59,4,2.85-.12,7.11,3.85,9.14,10.3,8.8C699.21,235,701.53,234.69,703,236.52Z"/><path class="cls-3" d="M414.33,157.51c-1.59-5.51-6.48-3.66-9.81-3.74-12.13-.3-23.54,4.74-35.57,5.56-1.47.1-1.65,1.47-2.53,2.13q.82-7.1,1.66-14.18c-.18,3.4,1.34,4.54,4.77,4.27,5.66-.45,11-2.28,16.46-3.5,7.39-1.64,14.66-2.27,22.08-.82,2.82.55,3.9-.49,3.83-3.38q-.21-9.18.28-18.37c1.12,4.63,2.41,9.22,1.64,14-1.1,4.36.13,8.8-.5,13.17C416.37,154.51,416.94,156.79,414.33,157.51Z"/><path class="cls-7" d="M286.2,153.43c-10.77-.26-21.56-.36-31.93,3-7.37,2.41-14.57,5.35-21.84,8.05q1.35-5.61,2.69-11.21c.89,3.82,3.24,1.17,4.53.71,8.06-2.83,15.94-6.11,24.55-7.15,7.59-.92,15.17-.23,22.75-.59Z"/><path class="cls-3" d="M361.16,205.34c-.15,3.81,1.47,3.75,4.83,3.14,15.29-2.76,29.61-9.33,45.1-11.15,2.74,5,2.38,13-.74,16.19-.65-9-.72-9.27-9.53-6.78-13.49,3.83-27,7.61-40.69,10.6C360.81,213.37,359.61,209.23,361.16,205.34Z"/><path class="cls-4" d="M418.23,194.39c1,1.09,1.88,2.05,3.66,2.07A189.64,189.64,0,0,0,449.58,195a53.7,53.7,0,0,1,9.86-.53c4,.19,5.36-1.38,4.79-5.23a28.07,28.07,0,0,1,.1-4.93c2.06,5.91.19,12.2,1.72,18.17-5.86-2.79-11.83-.49-17.6.14a205.12,205.12,0,0,1-24.39.78c-4.15,0-5,1.4-4.85,5.2.29,7.3.65,14.62-.11,21.93-2.36-.6-2.32-2.65-2.36-4.36-.25-9.24-.23-18.47,0-27.7A5.23,5.23,0,0,1,418.23,194.39Z"/><path class="cls-4" d="M173.18,198.32c2,3.1,4.42.86,6.36.29a191,191,0,0,1,42.7-7.22q-.92,5.07-1.85,10.13c-.28-1.65-.4-3.43-2.89-2.93-11.91,2.36-24.17,2.92-35.79,7-3.55,1.23-7.23,2.14-10.72,3.62C171.85,205.59,171.61,201.77,173.18,198.32Z"/><path class="cls-5" d="M642.36,449.54c-1.16-.3-2.39-.67-2.11-2.21.58-3.24.81-6.65,2-9.64,4-9.73,20.38-16.75,30.78-13.47q-12,11.2-24,22.4A12.17,12.17,0,0,1,642.36,449.54Z"/><path class="cls-3" d="M200,112.23c6.79.85,13.71,1.36,20.09-1.38,8.29-3.56,15.71-9.15,24.93-10.55-.7,2.71-.46,5.64-1.91,8.18-5.25.59-9.65,3.3-13.9,6-9.92,6.39-21,5.85-32,5.86C198.15,117.67,199.07,115,200,112.23Z"/><path class="cls-4" d="M462.35,166.3c-12.39-3.48-24.73-7.12-37.18-10.37-6.51-1.7-7.05-1-7.08,5.71q0,6.95,0,13.9a1.83,1.83,0,0,1-1.72-1.54c-.93-8.66-1.57-17.31,1.95-25.64a41.87,41.87,0,0,1,19.32,3.32c6.55,2.77,13.66,3.7,20.38,5.93,2.63.87,3.2-.19,3.37-2.35C462.78,158.84,461.72,162.65,462.35,166.3Z"/><path class="cls-4" d="M518,62.52a25.14,25.14,0,0,0-9.81,4.69c-5.79,4.42-12,6.93-19.4,6.06-3.89-.46-7.49,1.23-11.32,1.33-3.66.11-1.64,3.29-2.45,5-1.73-4.25-.24-8.91-1.71-13.19.42.26.92.82,1.26.74,9.87-2.32,20.91,1.11,29.81-6.11a21.84,21.84,0,0,1,7.83-4.2,3.76,3.76,0,0,0,3-4.42Z"/><path class="cls-4" d="M227.21,166.42a13,13,0,0,0-5.79,1.05,56.59,56.59,0,0,1-27.73,2.19c-4.34-.7-8.88-.17-13.33-.2q1.38-4,2.77-8.06c13.88,2.17,27.69,3,41.17-2.2a11,11,0,0,1,4.86-.85Z"/><path class="cls-8" d="M164.22,62.4a66,66,0,0,1,14.46,5.29c-7.69,3.34-12.47,8.88-18,13.6S149.5,91,142.28,93.42C147.42,81.53,156.09,72.15,164.22,62.4Z"/><path class="cls-4" d="M257.34,61.42c-7.85,2.53-15.62,5.26-22.66,9.68-5.92,3.72-12.57,3.5-19.18,3.45l2.84-7.18c5.19.57,9.78-1.12,14.25-3.54,9.2-5,19.13-8.28,28.73-12.35Q259.33,56.45,257.34,61.42Z"/><path class="cls-3" d="M457.07,113.47c-10.16-5.92-22.08-8.33-31.44-15.82-2.2-1.76-4.48-3.43-6.67-5.2-1.92-1.55-2.66-3.65-1.22-5.71,1.63-2.33,4-1.52,5.7-.09,3.19,2.66,6.46,5.18,9.88,7.54,6.51,4.5,14.38,6,21.21,9.8.35.19,1.14-.39,1.72-.61Q456.66,108.42,457.07,113.47Z"/><path class="cls-3" d="M681.25,376.44c-1.38-1.66-2.44-.26-3.3.53-4.12,3.72-9.13,5.25-14.44,6.11-3.76.61-7.52,1.13-10.77,3.42-1.77,1.25-3.48.85-4.78-.9s-.47-3,.7-4.42c2.79-3.35,6.74-4.41,10.66-4.73,9.12-.75,15.71-5.51,21.45-12.09a50.56,50.56,0,0,1,4.38-4C684,365.76,683.63,371.34,681.25,376.44Z"/><path class="cls-4" d="M169.27,450.34c14.72,3.89,27,10.77,32,26.41a49.37,49.37,0,0,0,2,4.56l-11.19-1.79c.55-3.07-.64-5.57-2.67-7.72-4-4.24-8.06-8.47-13.88-10.28a7.48,7.48,0,0,1-3.3-2.17A24.79,24.79,0,0,1,169.27,450.34Z"/><path class="cls-4" d="M170.19,169.43c-8.31-3.72-16.74-7.19-24.59-11.85-2-1.19-4-2.33-5.92-3.65-2.12-1.48-3.34-3.4-1.46-5.87,1.76-2.31,3.84-1.5,5.71-.19,7.37,5.17,15.44,9,23.72,12.4,2,.81,3.37.94,4.65-.85Q171.25,164.43,170.19,169.43Z"/><path class="cls-9" d="M172.23,459.35c8.16,1.41,14,6.44,18.87,12.64,1.47,1.88,4.86,4.52,1,7.53C176.22,476.86,176.22,476.86,172.23,459.35Z"/><path class="cls-4" d="M480.08,475.46c1.58-.26,3-.21,4-2.16,5.11-10.21,13.84-16.43,23.91-21.06l-3.69,12.24c-6.29,2.69-10.43,7.44-13,13.66Z"/><path class="cls-10" d="M97.27,453.34c-.94-7.48-3.16-14.24-9.92-18.66a66,66,0,0,1-6.27-4.93c-1.51-1.27-2.51-2.82-1-4.74s3.22-1.93,5.33-.95c1.64.77,2.6,3.15,5,2.2,3.34,10.06,10.38,18.37,13.58,29.09C101.63,454.31,99.55,453.4,97.27,453.34Z"/><path class="cls-6" d="M41.39,409.28c3.39-1.21,3.54-4.94,5.59-7.21,1.11-1.22,1.92-2.72,3-4,1.6-1.9,3.53-2.51,5.66-.84s1.72,3.94.17,5.68a32.3,32.3,0,0,0-6.56,10.46Z"/><path class="cls-11" d="M491.27,478.14a3.73,3.73,0,0,1,.55-4.56c3.14-3.55,6.24-7.16,10.24-9.87,1.37-.93,1.93-.77,2.25.77-.27,1.62-.42,3.27-.82,4.86C501,479,501,479,491.27,478.14Z"/><path class="cls-12" d="M687.24,226.29c-.71.58.56,3-1.53,2.08-6.77-2.82-9.09-19-3.54-24Z"/><path class="cls-13" d="M79.43,359.3c4.73,8.91,8.69,18.05,8.95,28.38.1,3.94.49,7.87.75,11.81C84.41,386.45,81.8,372.91,79.43,359.3Z"/><path class="cls-14" d="M217.4,449.23c-4.21.81-7.63-1.49-11.21-3-2.21-.93-2.53-3-1.67-5s2.73-1.93,4.64-1.46c2.69.67,5,2.64,7.92,2.49C217.19,444.58,217.29,446.91,217.4,449.23Z"/><path class="cls-11" d="M733.06,324.34c-3.92.92-8-3-7.18-6.66s3.59-6.2,6.79-8.87c1.32,4.74-.11,9.32.64,13.73C733.23,323.14,733.14,323.74,733.06,324.34Z"/><path class="cls-6" d="M158.37,61.53c-.69-2-2.41-2-4.1-2.05-2.6,0-5-.81-4.76-3.79s2.77-3.44,5.27-3.25c3.14.24,6.26.61,9.39.92Q161.28,57.46,158.37,61.53Z"/><path class="cls-4" d="M302.15,158.34c-.52,3.85,1,5.12,5,5,13.6-.48,27.21-.6,40.81-.82a7.07,7.07,0,0,0,4.24-1.12c.05,2.67-1.82,2.77-3.73,2.78-14.59.08-29.18.19-43.77.19C299.31,164.36,301,161.17,302.15,158.34Z"/><path class="cls-15" d="M521.27,397.42c-2.38-3.06-4.79-6.09-7.1-9.2-.52-.7-1.16-2.48-.07-2.39,3.58.33,6.57-3.1,10.23-1.35Z"/><path class="cls-3" d="M628.29,260.34c1.21,1.44.83,3.19.83,4.8,0,13.16,0,26.32,0,39.48,0,1.32.15,2.7-.86,3.79Z"/><path class="cls-3" d="M167.1,229.17c.38,2.18-.68,4.07-1.48,6.07-.37-6-1.08-12,.49-17.89C167.33,221.21,165,225.38,167.1,229.17Z"/><path class="cls-16" d="M707.17,323.33c-.8-1.4-3-3.24,1-3,2.39.11,4.33,1.09,7.27,3.18h-7.88Z"/><path class="cls-3" d="M315.19,222.41a25.54,25.54,0,0,1-6-9.9C312.45,215,314,218.62,315.19,222.41Z"/><path class="cls-4" d="M478.38,124.35c1.39,3.65.89,7.42.7,11.17C477.71,131.87,478.16,128.1,478.38,124.35Z"/><path class="cls-3" d="M408.05,241.33l-2.76,29.13c.09-6.45-3-12.11-4.58-18.13a110.67,110.67,0,0,1-3.54-18.92c-.19-2.16-.3-4.68,2.68-5s4,1.69,4.4,4.3c.57,3.62,1.33,7.2,2.13,11.47Z"/><text class="cls-17" transform="translate(156.01 649.87)">WEB <tspan class="cls-18" x="175.66" y="0">S</tspan><tspan x="215" y="0">TUDIO</tspan></text><text/></g></g></svg>